<svg viewBox="0 0 163 228" fill="var(--bg-color)" stroke-width="3px" id="drink" version="1.1" xmlns="http://www.w3.org/2000/svg" xmlns:xlink="http://www.w3.org/1999/xlink">
  <style>
  :root {
    --background-color: red;
    --background-color-faded: darkRed;
    --background-color-muted: pink;
    --accent-color: blue;
    --accent-color-faded: darkBlue;
  }
  </style>
  <g transform="translate(-21.696 -34.66)">
    <path fill="var(--background-color)" stroke="var(--background-color-faded)" d="m61.879 198.54c-12.365-13.474-28.726-16.795-28.316-52.266-4.7665 1.1297-11.071 1.4468-11.035 15.794 0.0685 26.895 24.442 42.968 44.741 58.759z"></path>
    <path fill="var(--background-color)" stroke="var(--background-color-faded)" d="m52.618 158.67c-11.245-10.494-30.385-14.697-30.26 3.1337-0.058473-9.8756 3.3515-32.774 27.779-17.423z"></path>
    <path fill="var(--background-color)" stroke="var(--background-color-faded)" d="m43.834 137.05c4.8212 29.641 23.668 103.28 46.696 117.76 12.698 7.9838 28.845 10.113 41.958 1.4612 33.988-22.427 39.746-97.459 41.018-119.22-6.5804 14.977-32.493 21.251-62.41 21.53-29.916 0.2795-59.399-5.5645-67.262-21.53z"></path>
    <ellipse fill="var(--background-color-muted)" stroke="var(--background-color-faded)" cx="108.45" cy="134.78" rx="65.056" ry="23.88"></ellipse>
    <path fill="var(--background-color-faded)" d="m62.17 182.51c15.734 10.97 26.9 16.567 48.636 14.54 9.2392-1.4046 15.222-4.0161 17.519-9.266 2.8025-6.4064 4.196-10.924 8.5534-13.798 3.8439-3.3771 7.688-2.5034 11.532-2.0055l4.0111 2.0056 16.044-11.03-16.546 14.289c-0.92202 2.5479-1.192 5.0959-3.33 7.6438-0.83568 12.032-5.9357 38.677-34.274 37.751-3.1533 3.8947-8.1634 3.0538-12.535 4.5125-3.2081 4.5789-15.218 3.1898-15.543 1.9868 1.7795-1.67 3.3184-3.0993 5.3943-5.0657 1.4964-2.3651 2.6678-5.805 7.8925-8.2209-19.793-3.7692-31.311-16.306-37.354-33.343z"></path>
    <circle fill="var(--background-color)" cx="143.32" cy="176.64" r=".97496"></circle>
    <ellipse fill="var(--accent-color-faded)" cx="109.32" cy="138.56" rx="56.1" ry="15.932"></ellipse>
    <path fill="var(--accent-color)" d="m155.33 136.23c-4.4786-7.1083-25.488-11.445-54.017-11.742-19.701-0.20579-64.775 10.569-34.719 22.122 21.81 8.383 75.988 8.6987 88.842-3.6012 4.181-4.0013-21.836-9.7726-40.005-9.6933-13.582 0.0594-29.289 2.2836-29.311 6.6334-0.01482 3.088 5.9801 4.9665 19.571 5.8124 24.693 1.537 28.072-2.7525 28.072-2.7525 0.74147 5.2935-53.216 11.887-55.094-4.0402-0.89249-7.5705 11.779-9.7541 23.267-10.1 33.525-1.0088 46.212 2.6426 53.393 7.3618z"></path>
  </g>
</svg>
