<svg xmlns="http://www.w3.org/2000/svg" fill="currentColor">

<symbol id="linkedin" fill="currentColor" viewBox="0 0 512 512"><!--!Font Awesome Free v7.1.0 by @fontawesome - https://fontawesome.com License - https://fontawesome.com/license/free Copyright 2026 Fonticons, Inc.--><path d="M64 32C28.7 32 0 60.7 0 96L0 416c0 35.3 28.7 64 64 64l320 0c35.3 0 64-28.7 64-64l0-320c0-35.3-28.7-64-64-64L64 32zm5 170.2l66.5 0 0 213.8-66.5 0 0-213.8zm71.7-67.7a38.5 38.5 0 1 1 -77 0 38.5 38.5 0 1 1 77 0zM317.9 416l0-104c0-24.8-.5-56.7-34.5-56.7-34.6 0-39.9 27-39.9 54.9l0 105.8-66.4 0 0-213.8 63.7 0 0 29.2 .9 0c8.9-16.8 30.6-34.5 62.9-34.5 67.2 0 79.7 44.3 79.7 101.9l0 117.2-66.4 0z"/></symbol>

<symbol id="tools" fill="currentColor" version="1.1" viewBox="0 0 576 512" xmlns="http://www.w3.org/2000/svg">
 <!--!Font Awesome Free v7.1.0 by @fontawesome - https://fontawesome.com License - https://fontawesome.com/license/free Copyright 2026 Fonticons, Inc.-->
 <path d="m354.45 0c-87.044 0-157.55 70.502-157.55 157.55 0 17.33 2.7571 33.872 7.8773 49.429l-184.03 184.03c-27.669 27.669-27.669 72.57 0 100.24 27.669 27.669 72.57 27.669 100.24 0l184.03-184.03c15.558 5.1202 32.198 7.8773 49.429 7.8773 87.044 0 157.55-70.502 157.55-157.55 0-19.792-3.6432-38.795-10.339-56.224-3.7417-9.8466-16.247-11.718-23.73-4.2348l-87.341 87.341c-2.954 2.954-6.99 4.6271-11.126 4.6271h-40.765c-8.665 0-15.755-7.0896-15.755-15.755v-40.765c0-4.1356 1.6732-8.1715 4.6271-11.126l87.341-87.341c7.385-7.4834 5.6118-19.988-4.2348-23.73-17.429-6.6957-36.432-10.339-56.224-10.339zm-0.62695 39.417c-16.934 16.95-33.868 33.899-50.802 50.849-10.121 9.0414-17.254 21.613-18.986 35.142-0.581 9.2206-0.46428 18.468-0.47117 27.703 0.0955 6.571-0.13358 13.144 0.0135 19.714 0.0804 8.9681 1.9604 18.022 6.2388 25.955 8.2581 15.758 24.471 27.166 42.185 29.236 14.335 0.67748 28.691 0.3208 43.037 0.42502 14.474 0.82069 29.334-3.8296 40.352-13.345 19.149-18.9 38.139-37.964 57.178-56.978-0.0128 2.2915-0.083 4.4586-0.2154 6.7311-0.36527 6.0103-1.1954 12.198-2.5174 18.153-0.18062 0.87432-0.44415 1.912-0.61542 2.6713-0.87259 3.5377-1.8978 7.0375-3.0944 10.479-7.477 21.753-21.515 41.177-39.781 55.151-0.79985 0.61859-1.7544 1.3182-2.4809 1.8578-8.5309 6.1883-17.881 11.249-27.746 14.962-2.3452 0.88129-4.8544 1.7428-7.333 2.4963-2.7358 0.83524-5.5324 1.5667-8.3754 2.204-10.153 2.266-20.78 3.17-31.238 2.727-5.4151-0.23561-11.112-0.86187-16.557-1.8655-5.8569-1.0883-11.702-2.7531-17.305-4.5502-6.9777-2.2582-13.88-4.7392-20.826-7.0907-65.42 65.41-130.81 130.85-196.25 196.24-2.9739 2.8376-5.6385 6.0412-9.01 8.4312-7.4648 5.3642-17.325 7.2303-26.222 4.8964-9.1998-2.2937-17.107-9.0576-20.918-17.722-4.9836-10.993-2.853-24.858 5.3733-33.727 19.682-19.742 39.395-39.456 59.089-59.187 37.926-37.947 75.843-75.907 113.8-113.82 4.242-4.1783 8.3946-8.449 12.706-12.554 6.7642-6.6192 11.14-15.745 11.587-25.238 0.27286-4.6564-0.65658-9.287-2.0924-13.697-1.2511-3.8167-2.381-7.6737-3.2578-11.595-0.15224-0.70047-0.35231-1.5971-0.47502-2.1751-1.1273-5.438-1.8696-10.955-2.227-16.497-0.0602-0.81287-0.0998-1.7449-0.14231-2.4386-0.44232-10.188 0.37206-20.435 2.5251-30.405 0.36698-1.769 0.82937-3.6476 1.2654-5.3176 5.1792-19.651 15.59-37.875 29.821-52.376 0.68371-0.70809 1.5178-1.5121 2.1366-2.1309 4.7778-4.6176 9.9341-8.8425 15.414-12.601 0.89089-0.61923 1.9382-1.3035 2.7578-1.8443 11.288-7.2981 23.826-12.657 36.909-15.741 4.9783-1.1585 10.249-2.0426 15.424-2.5424 1.5926-0.1595 3.205-0.28062 4.8675-0.38079 1.6102-0.09577 3.1899-0.15266 4.8579-0.18847 0.46734-0.0038 0.93467-0.0077 1.402-0.01154z"/>
</symbol>



<symbol id="intro" fill="currentColor" viewBox="0 0 512 512">
  <!--!Font Awesome Free v7.1.0 by @fontawesome - https://fontawesome.com License - https://fontawesome.com/license/free Copyright 2026 Fonticons, Inc.-->
  <path
     d="M 224 8 A 120 120 0 0 0 224 248 A 120 120 0 0 0 224 8 z M 221.43359 48.080078 C 223.73197 48.007678 226.0341 48.055592 228.33008 48.173828 C 240.05345 48.795964 251.71996 52.09386 261.97852 57.644531 C 265.81901 59.727121 269.71835 62.247063 273.23047 65.011719 C 274.38616 65.898655 275.60802 66.926811 276.64062 67.820312 C 279.4633 70.292779 282.11544 72.959983 284.56055 75.806641 C 295.54867 88.525899 302.36745 104.78182 303.67969 121.54297 C 303.75881 122.49644 303.82434 123.62506 303.86914 124.47266 C 304.31943 134.5042 302.84219 144.61633 299.56055 154.10547 C 299.2287 155.0877 298.79919 156.20359 298.4707 157.07227 C 295.74179 164.01148 292.07115 170.58407 287.54492 176.51172 C 277.81116 189.35715 264.05268 199.05733 248.73047 204.02734 C 234.86713 208.58852 219.75173 209.16117 205.56055 205.79102 C 203.65872 205.34322 201.95313 204.8705 200.10156 204.29883 C 198.91072 203.9282 197.58416 203.46933 196.50391 203.08203 C 183.13404 198.20581 171.14272 189.65131 162.12109 178.65039 C 152.73529 167.20545 146.50274 152.80698 144.67383 137.98828 C 144.52725 136.82653 144.43632 135.89924 144.33203 134.74219 C 144.09339 131.91252 144.02023 129.22827 144.07812 126.39453 C 144.10172 125.24112 144.15227 123.95305 144.23047 122.82812 C 144.30923 121.55769 144.42062 120.25694 144.57227 118.91602 C 146.49707 101.44849 154.48372 84.758305 166.75195 72.193359 C 167.23585 71.695799 167.8788 71.062386 168.2793 70.662109 C 178.11936 61.038491 190.52531 54.109933 203.83789 50.646484 C 204.77492 50.404542 205.89166 50.137893 206.72656 49.947266 C 211.55764 48.875097 216.48752 48.24582 221.43359 48.080078 z M 194.30078 304 C 95.800781 304 16 383.80078 16 482.30078 C 16 498.70078 29.299219 512 45.699219 512 L 402.30078 512 C 418.70078 512 432 498.70078 432 482.30078 C 432 383.80078 352.19922 304 253.69922 304 L 194.30078 304 z M 231.14062 344.01758 C 239.89354 344.02168 248.64862 343.94078 257.40039 344.09961 C 258.09506 344.11461 259.05178 344.15413 259.69531 344.17773 C 263.67961 344.35337 267.65801 344.67212 271.61328 345.1875 C 273.00205 345.36817 274.62318 345.59533 276.12695 345.84766 C 277.51173 346.0646 279.07431 346.35167 280.32422 346.58984 C 299.76724 350.35258 318.34266 358.42766 334.4043 370.00586 C 335.1175 370.51593 335.96724 371.15133 336.57812 371.60156 C 338.49097 373.04686 340.3762 374.52916 342.21289 376.07031 C 360.55768 391.36394 374.91112 411.43988 383.24609 433.83594 C 384.09482 436.11566 384.93349 438.54421 385.63086 440.78125 C 386.32204 442.97454 386.96565 445.23542 387.56055 447.52344 C 389.07293 453.37849 390.1992 459.33295 390.91797 465.28125 C 391.18866 467.40929 391.41022 469.69 391.57422 471.95703 C 279.85221 471.97393 168.13021 471.99091 56.408203 472.00781 C 56.957529 464.57586 58.105768 457.18911 59.839844 449.94141 C 60.385178 447.67617 60.994818 445.37087 61.664062 443.07031 C 63.21798 437.79719 65.155176 432.40072 67.386719 427.28125 C 68.448504 424.82488 69.655888 422.24846 70.867188 419.87305 C 71.409278 418.7843 72.065204 417.56138 72.632812 416.49805 C 77.476856 407.5603 83.330489 399.17531 90.007812 391.51172 C 102.1725 377.5453 117.1327 366.00796 133.80859 357.93164 C 134.49711 357.60479 135.36483 357.18659 135.94141 356.91602 C 145.99563 352.25084 156.603 348.77059 167.48047 346.63477 C 168.09376 346.51552 168.92734 346.36007 169.4043 346.26367 C 170.63779 346.05693 171.867 345.82618 173.10547 345.65039 C 173.9963 345.52011 174.71556 345.3993 175.54883 345.29883 C 179.63745 344.75719 183.83379 344.3476 187.90625 344.25 C 202.31483 343.89825 216.7292 344.03418 231.14062 344.01758 z " />
</symbol>

<symbol
     id="projects"
     fill="currentColor"
     viewBox="0 0 512 512">
    <path
       d="m 200,48 h 112 c 4.4,0 8,3.6 8,8 V 96 H 192 V 56 c 0,-4.4 3.6,-8 8,-8 z M 200,0 C 169.1,0 144,25.1 144,56 V 96 H 64 C 28.7,96 0,124.7 0,160 v 97 47 16 96 c 0,35.3 28.7,64 64,64 h 384 c 35.3,0 64,-28.7 64,-64 V 320 304 257 160 C 512,124.7 483.3,96 448,96 H 368 V 56 C 368,25.1 342.9,0 312,0 Z m 246.97852,136.01172 c 2.12361,-0.0503 4.25356,0.14551 6.32617,0.61328 9.47883,2.00182 17.18663,10.39971 18.39843,20.00586 0.19451,4.35237 0.15736,8.71639 0.18946,13.07422 0.0462,28.76487 0.0723,57.52987 0.0859,86.29492 H 39.994141 c 7.85e-4,-16.47004 0.0039,-32.94008 0.0098,-49.41016 -0.0044,-13.21561 0.0254,-26.4311 0.0078,-39.64648 0.04242,-4.34887 -0.307245,-8.78535 0.804687,-13.03906 2.434807,-9.86588 11.884221,-17.51212 22.042969,-17.8125 128.039675,-0.0491 256.079335,-0.0675 384.119145,-0.0801 z M 39.998047,304 H 192 v 16 c 0,17.7 14.3,32 32,32 h 64 c 17.7,0 32,-14.3 32,-32 v -16 h 151.99023 c 0.002,33.99811 -0.007,67.99621 -0.0176,101.99414 -0.15562,5.02191 0.46139,10.10779 -0.54297,15.07227 -1.99983,10.16264 -11.42588,18.25682 -21.7461,18.82421 -126.74053,0.11271 -253.48167,0.0846 -380.222652,0.0996 -4.034329,0.0992 -8.147968,0.17479 -12.064454,-0.95507 -7.571737,-2.03437 -13.722975,-8.20101 -16.171875,-15.5918 -0.946738,-2.65127 -1.22582,-5.4751 -1.18164,-8.27539 C 40.022129,378.11192 40.005416,341.05596 39.998047,304 Z" />
    <!--!Font Awesome Free v7.1.0 by @fontawesome - https://fontawesome.com License - https://fontawesome.com/license/free Copyright 2026 Fonticons, Inc.-->
  </symbol>

<symbol id="about"  fill="currentColor" viewBox="0 0 512 512">
  <!--!Font Awesome Free v7.1.0 by @fontawesome - https://fontawesome.com License - https://fontawesome.com/license/free Copyright 2026 Fonticons, Inc.-->
  <path
     d="M 256 0 C 114.6 0 0 107.5 0 240 C 0 294.3 19.199609 344.29961 51.599609 384.59961 L 2.8007812 476.80078 C -1.9992187 485.80078 -0.49960938 496.80078 6.4003906 504.30078 C 13.300391 511.80078 24.1 514.09961 33.5 510.09961 L 151.90039 459.30078 C 183.70039 472.60078 218.9 480 256 480 C 397.4 480 512 372.5 512 240 C 512 107.5 397.4 0 256 0 z M 250.80859 40.09375 C 255.02972 39.996681 259.25262 40.039905 263.47266 40.166016 C 265.7081 40.238037 268.24016 40.359287 270.47266 40.494141 C 274.01644 40.717793 277.47404 40.994601 281.01562 41.371094 C 298.82781 43.264318 316.51675 47.272319 333.33398 53.253906 C 339.62992 55.493047 345.8283 58.006407 351.89844 60.800781 C 355.9574 62.68749 360.18283 64.771903 364.20117 66.941406 C 387.85081 79.62765 409.15514 96.723296 426.45508 117.25586 C 447.04261 141.66842 461.78776 171.1268 468.1582 202.4668 C 468.99045 206.51688 469.65578 210.44783 470.2168 214.52148 C 471.14296 221.30253 471.73883 228.33641 471.89648 235.25781 C 472.04311 241.35509 471.90897 247.67923 471.43945 253.8457 C 471.24992 256.39063 471.0018 259.07408 470.7168 261.50781 C 470.54764 262.87657 470.41357 264.09402 470.22266 265.41016 C 469.73828 269.02836 469.1081 272.75588 468.38672 276.41016 C 467.21409 282.28617 465.70891 288.40916 463.9082 294.25977 C 456.23354 319.61484 443.04344 343.20384 425.91016 363.375 C 412.87184 378.76803 397.43867 392.26308 380.64844 403.28125 C 379.53017 404.02992 378.26079 404.814 377.21484 405.49609 C 376.30115 406.06093 375.24948 406.71619 374.42188 407.22461 C 369.88442 409.97699 365.25515 412.5791 360.53125 414.99805 C 359.42824 415.57077 358.17091 416.18186 357.15234 416.70117 C 346.54694 421.90402 335.53504 426.27829 324.24609 429.75781 C 322.99551 430.15026 321.59048 430.55514 320.42773 430.90234 C 301.81731 436.30051 282.39148 439.27334 263.10547 439.84766 C 253.01458 440.14586 242.9051 439.80259 232.85742 438.82422 C 230.61933 438.59689 228.56361 438.36344 226.33594 438.08398 C 225.10006 437.92795 223.71445 437.72577 222.57812 437.57812 C 217.09875 436.77287 211.64144 435.80706 206.23242 434.61523 C 202.43044 433.78843 198.63021 432.8499 194.82812 431.82227 C 193.22518 431.38284 191.49449 430.88837 189.98242 430.44336 C 176.91075 426.55823 164.32274 421.257 151.84375 415.80078 C 121.02265 429.01704 90.203256 442.23729 59.382812 455.45508 C 72.633808 430.34833 85.921308 405.26067 99.199219 380.16797 C 97.524516 378.06859 95.851857 375.96898 94.177734 373.86914 C 87.555061 365.43481 80.599573 357.24531 74.494141 348.41797 C 71.06448 343.47587 67.735296 338.22251 64.726562 332.92578 C 62.731581 329.42859 60.796649 325.73598 59.076172 322.23242 C 54.290918 312.4384 50.346997 302.23277 47.335938 291.75586 C 45.745889 286.26233 44.409224 280.59896 43.314453 274.92773 C 43.168736 274.10857 42.936295 272.82906 42.783203 272.00195 C 41.96465 267.2146 41.310566 262.39902 40.863281 257.5625 C 40.759938 256.47472 40.662898 255.21845 40.580078 254.23438 C 40.124786 248.12672 39.972977 242.08388 40.095703 235.94531 C 40.110496 234.66455 40.179337 233.23087 40.216797 232.04883 C 40.420576 227.22919 40.807288 222.3201 41.380859 217.5957 C 41.735825 214.61536 42.187857 211.54315 42.679688 208.64844 C 43.207152 205.55659 43.81635 202.45609 44.484375 199.44922 C 45.758441 193.6973 47.352183 187.9041 49.142578 182.36523 C 51.179525 176.0997 53.545423 169.94139 56.232422 163.92578 C 59.299526 157.03205 62.857072 150.16373 66.761719 143.62891 C 67.22454 142.84275 67.853592 141.82111 68.314453 141.0625 C 70.428342 137.6523 72.632242 134.29808 74.945312 131.01953 C 88.689484 111.45833 106.05184 94.368788 125.54297 80.669922 C 132.09956 76.050726 138.98723 71.76445 145.95508 67.929688 C 151.21161 65.041744 156.68018 62.316202 162.09375 59.892578 C 174.96846 54.117018 188.39644 49.591431 202.12109 46.320312 C 206.11348 45.379176 210.27536 44.509239 214.18164 43.791016 C 226.26935 41.601634 238.52785 40.374012 250.80859 40.09375 z " />
</symbol>

<symbol id="email"  fill="currentColor" viewBox="0 0 512 512">
<!--!Font Awesome Free v7.1.0 by @fontawesome - https://fontawesome.com License - https://fontawesome.com/license/free Copyright 2026 Fonticons, Inc.--><path d="M61.4 64C27.5 64 0 91.5 0 125.4 0 126.3 0 127.1 .1 128L0 128 0 384c0 35.3 28.7 64 64 64l384 0c35.3 0 64-28.7 64-64l0-256-.1 0c0-.9 .1-1.7 .1-2.6 0-33.9-27.5-61.4-61.4-61.4L61.4 64zM464 192.3L464 384c0 8.8-7.2 16-16 16L64 400c-8.8 0-16-7.2-16-16l0-191.7 154.8 117.4c31.4 23.9 74.9 23.9 106.4 0L464 192.3zM48 125.4C48 118 54 112 61.4 112l389.2 0c7.4 0 13.4 6 13.4 13.4 0 4.2-2 8.2-5.3 10.7L280.2 271.5c-14.3 10.8-34.1 10.8-48.4 0L53.3 136.1c-3.3-2.5-5.3-6.5-5.3-10.7z"/></symbol>

<symbol id="github"  fill="currentColor" viewBox="0 0 512 512">
<!--!Font Awesome Free v7.1.0 by @fontawesome - https://fontawesome.com License - https://fontawesome.com/license/free Copyright 2026 Fonticons, Inc.--><path d="M173.9 397.4c0 2-2.3 3.6-5.2 3.6-3.3 .3-5.6-1.3-5.6-3.6 0-2 2.3-3.6 5.2-3.6 3-.3 5.6 1.3 5.6 3.6zm-31.1-4.5c-.7 2 1.3 4.3 4.3 4.9 2.6 1 5.6 0 6.2-2s-1.3-4.3-4.3-5.2c-2.6-.7-5.5 .3-6.2 2.3zm44.2-1.7c-2.9 .7-4.9 2.6-4.6 4.9 .3 2 2.9 3.3 5.9 2.6 2.9-.7 4.9-2.6 4.6-4.6-.3-1.9-3-3.2-5.9-2.9zM252.8 8c-138.7 0-244.8 105.3-244.8 244 0 110.9 69.8 205.8 169.5 239.2 12.8 2.3 17.3-5.6 17.3-12.1 0-6.2-.3-40.4-.3-61.4 0 0-70 15-84.7-29.8 0 0-11.4-29.1-27.8-36.6 0 0-22.9-15.7 1.6-15.4 0 0 24.9 2 38.6 25.8 21.9 38.6 58.6 27.5 72.9 20.9 2.3-16 8.8-27.1 16-33.7-55.9-6.2-112.3-14.3-112.3-110.5 0-27.5 7.6-41.3 23.6-58.9-2.6-6.5-11.1-33.3 2.6-67.9 20.9-6.5 69 27 69 27 20-5.6 41.5-8.5 62.8-8.5s42.8 2.9 62.8 8.5c0 0 48.1-33.6 69-27 13.7 34.7 5.2 61.4 2.6 67.9 16 17.7 25.8 31.5 25.8 58.9 0 96.5-58.9 104.2-114.8 110.5 9.2 7.9 17 22.9 17 46.4 0 33.7-.3 75.4-.3 83.6 0 6.5 4.6 14.4 17.3 12.1 100-33.2 167.8-128.1 167.8-239 0-138.7-112.5-244-251.2-244zM105.2 352.9c-1.3 1-1 3.3 .7 5.2 1.6 1.6 3.9 2.3 5.2 1 1.3-1 1-3.3-.7-5.2-1.6-1.6-3.9-2.3-5.2-1zm-10.8-8.1c-.7 1.3 .3 2.9 2.3 3.9 1.6 1 3.6 .7 4.3-.7 .7-1.3-.3-2.9-2.3-3.9-2-.6-3.6-.3-4.3 .7zm32.4 35.6c-1.6 1.3-1 4.3 1.3 6.2 2.3 2.3 5.2 2.6 6.5 1 1.3-1.3 .7-4.3-1.3-6.2-2.2-2.3-5.2-2.6-6.5-1zm-11.4-14.7c-1.6 1-1.6 3.6 0 5.9s4.3 3.3 5.6 2.3c1.6-1.3 1.6-3.9 0-6.2-1.4-2.3-4-3.3-5.6-2z"/></symbol>


</svg>
