
<!-- Created with Inkscape (http://www.inkscape.org/) -->
<svg fill="var(--bg-color)" stroke="var(--bg-color-muted)" stroke-opacity="0.5" stroke-width="3px" id="laptop" version="1.1" viewBox="0 0 220 150" xmlns="http://www.w3.org/2000/svg" xmlns:xlink="http://www.w3.org/1999/xlink">
 <g transform="translate(496.09 -268.13)">
  <g transform="matrix(.26458 0 0 .26458 -733.42 -458.42)">
   <path d="m966.07 2755.6c-1.9942 7.747-0.11231 37.672-0.16752 56.508-0.33389 113.02-0.67274 226.03-1.0051 339.05-0.0552 18.836-12.309 49.828-0.16752 56.508 0.0666 0.036 677.96 1.0973 679.38 0 8.9946-6.9224-0.118-37.785-0.1789-56.677l-1.0718-340.06c-0.059-18.892 7.9993-50.354-0.1789-56.677-11.004-8.5081-56.384 0.1126-84.576 0.168l-507.46 1.0076c-28.192 0.057-80.464-15.806-84.576 0.168z"  />
   <path d="m964.72 3207.7s-10.397 13.719-15.595 20.579c-5.1984 6.8596-10.397 13.719-15.595 20.579-5.1984 6.8598-10.397 13.719-15.595 20.579-5.1984 6.8598-19.415 12.862-15.595 20.579 7.4531 15.06 33.539 0 50.309 0h50.309 50.309 50.309 50.309 50.31 50.309 50.309 50.309 50.309 50.309 50.309 50.309 50.31 50.309c16.77 0 42.903 15.083 50.309 0 3.8133-7.7658-10.531-13.72-15.796-20.579-5.2655-6.8598-10.531-13.719-15.796-20.579-5.2655-6.8596-10.531-13.719-15.796-20.579-5.2654-6.8598-15.796-20.579-15.796-20.579"  />
   <path fill-opacity="1" d="m902.34 3290c-4.6393 10.443-5.4495 5.6525 12.114 13.495 17.564 7.842 64.836 0 97.253 0h97.253 97.254 97.253 97.254 97.253 97.254c32.418 0 79.024 7.0653 97.254 0 18.229-7.0654 19.033-2.5358 14.807-13.495-4.2263-10.959-33.54 0-50.309 0h-50.309-50.309-50.309-50.309-50.309-50.309-50.309-50.309-50.309-50.309-50.309-50.309-50.309-50.309c-16.77 0-45.67-10.443-50.309 0z"  />
   <path class="tint-dark" d="m1130.8 3277.4c3.8195 5.1884 14.694 3.8168 22.042 3.8168h308.59c7.3474 0 18.341 1.9668 22.042-3.3737 2.0369-2.9392-10.576-28.282-11.778-28.339-4.4697-0.2082-13.797 0-20.696 0 0 0-282.84 0.6749-289.74 0-6.8987-0.6748-15.701 0.1203-20.696 3.8169-0.9151 0.6771-12.07 20.94-9.759 24.079z"  />
   <path fill="var(--bg-color-faded)" d="m1024.3 3246.1c6.4253 2.2212 23.581 0 35.371 0h495.2c11.79 0 24.008 2.7653 35.371 0 9.6125-2.3393-6.8051-31.63-17.246-31.122-9.5092 0.4632-22.066 0-33.1 0h-463.39c-11.033 0-22.795 0.6764-33.1 0-6.1854-0.4059-22.547 29.929-19.097 31.122z"  />
   <path d="m983.62 2778.9-4.7872 403.63h649.14l-0.9575-405.54z"  />
   <rect x="1004.1" y="3155.8" width="595.38" height="21.213" rx="10" ry="10"  />
   <path d="m995.34329-2791.6-4.6117 356.85h625.33l-0.9224-358.54z"  />
   <g fill="var(--bg-color-faded)" transform="matrix(.95109 0 0 .97921 63.862 65.258)"  >
    <rect transform="scale(1,-1)" x="1519.8" y="-3175.5" width="20.591" height="16.504" class="tint-dark"  rx="21.028" ry="5.3104"  />
    <rect transform="scale(1,-1)" x="1003.7" y="-3175.5" width="20.591" height="16.504" class="tint-dark" rx="21.028" ry="5.3104"  />
    <rect transform="scale(1,-1)" x="1032.5" y="-3175.5" width="20.591" height="16.504" class="tint-dark"  rx="21.028" ry="5.3104"  />
    <rect transform="scale(1,-1)" x="1061.3" y="-3175.5" width="20.591" height="16.504" class="tint-dark"  rx="21.028" ry="5.3104"  />
    <rect transform="scale(1,-1)" x="1090.1" y="-3175.5" width="20.591" height="16.504" class="tint-dark"  rx="21.028" ry="5.3104"  />
    <rect transform="scale(1,-1)" x="1118.9" y="-3175.5" width="20.591" height="16.504" class="tint-dark"  rx="21.028" ry="5.3104"  />
    <rect transform="scale(1,-1)" x="1147.7" y="-3175.5" width="20.591" height="16.504" class="tint-dark"  rx="21.028" ry="5.3104"  />
    <rect transform="scale(1,-1)" x="1174.2" y="-3175.5" width="20.591" height="16.504" class="tint-dark"  rx="21.028" ry="5.3104"  />
    <rect transform="scale(1,-1)" x="1203" y="-3175.5" width="20.591" height="16.504" class="tint-dark"  rx="21.028" ry="5.3104"  />
    <rect transform="scale(1,-1)" x="1231.8" y="-3175.5" width="20.591" height="16.504" class="tint-dark"  rx="21.028" ry="5.3104"  />
    <rect transform="scale(1,-1)" x="1260.6" y="-3175.5" width="20.591" height="16.504" class="tint-dark"  rx="21.028" ry="5.3104"  />
    <rect transform="scale(1,-1)" x="1289.4" y="-3175.5" width="20.591" height="16.504" class="tint-dark"  rx="21.028" ry="5.3104"  />
    <rect transform="scale(1,-1)" x="1318.2" y="-3175.5" width="20.591" height="16.504" class="tint-dark"  rx="21.028" ry="5.3104"  />
    <rect transform="scale(1,-1)" x="1347" y="-3175.5" width="20.591" height="16.504" class="tint-dark"  rx="21.028" ry="5.3104"  />
    <rect transform="scale(1,-1)" x="1376.3" y="-3175.5" width="20.591" height="16.504" class="tint-dark"  rx="21.028" ry="5.3104"  />
    <rect transform="scale(1,-1)" x="1404.6" y="-3175.5" width="20.591" height="16.504" class="tint-dark"  rx="21.028" ry="5.3104"  />
    <rect transform="scale(1,-1)" x="1433.4" y="-3175.5" width="20.591" height="16.504" class="tint-dark"  rx="21.028" ry="5.3104"  />
    <rect transform="scale(1,-1)" x="1462.2" y="-3175.5" width="20.591" height="16.504" class="tint-dark"  rx="21.028" ry="5.3104"  />
    <rect transform="scale(1,-1)" x="1491" y="-3175.5" width="20.591" height="16.504" class="tint-dark"  rx="21.028" ry="5.3104"  />
    <rect transform="scale(1,-1)" x="1548.6" y="-3175.5" width="20.591" height="16.504" class="tint-dark"  rx="21.028" ry="5.3104"  />
    <rect transform="scale(1,-1)" x="1577.4" y="-3175.5" width="20.591" height="16.504" class="tint-dark"  rx="21.028" ry="5.3104"  />
   </g>
  </g>
 </g>
</svg>
