<svg version="1.1" xmlns="http://www.w3.org/2000/svg" xmlns:xlink="http://www.w3.org/1999/xlink">
 <g viewBox="0 0 165 165" id="drink" transform="translate(-21.696 -34.66)">
    <path fill="var(--accent-color)" d="m87.878 93.751c-3.669-8.9724 22.497-8.7075 26.548-8.8384 29.633-0.82441 36.919-5.8261 35.09-7.7727-10.446-5.7224-30.778-0.13076-62.74-0.51977-30.193-0.36748-44.434-5.9758-42.663-12.133 1.6855-5.8595 17.874-12.216 48.616-15.025 24.259-2.2162 34.211-3.9293 36.108-6.2161 3.2503-3.9161-29.361-8.5865-29.361-7.5434 0-5.3176 115.73 6.2282 23.68 15.075-5.1047 1.3265-37.322 1.32-35.851 9.4705 3.7121 12.624 48.49 8.8454 66.543 10.251 5.3524 0.76659 30.295 4.8125 30.295 13.64-14.453 22.79-85.725-4.0905-85.725 10.345 0.47391 1.9286 2.4268 3.0814 4.1011 3.9065-3.6591-0.07244-9.3032-0.48797-14.641-4.6393z" />
 </g>
</svg>