<?xml version="1.0" encoding="UTF-8"?>
<svg version="1.1" xmlns="http://www.w3.org/2000/svg">
    <symbol id="steam" viewBox="-30 -100 210 165"> 
        <path d="m42.952 59.564c-3.669-8.9724 20.497-12.707 24.548-12.838 29.633-0.82441 36.919-5.8261 35.09-7.7727-10.446-5.7224-30.778-0.13076-62.74-0.51977-30.193-0.36748-38.434-5.9758-36.663-12.133 1.6855-5.8595 11.874-12.216 42.616-15.025 24.259-2.2162 34.211-3.9293 36.108-6.2161 3.2503-3.9161-29.361-4.5865-29.361-3.5434 0-5.3176 95.538 2.9494 23.68 11.075-5.1047 1.3265-37.322 1.32-35.851 9.4705 3.7121 12.624 48.49 8.8454 66.543 10.251 5.3524 0.76659 30.295 4.8125 30.295 13.64-14.453 22.79-85.725-0.0905-85.725 14.345 0.47391 1.9286 2.4268 3.0814 4.1011 3.9065-3.6591-0.0724-7.3032-0.48797-12.641-4.6393z">
            <animate
                attributeName="d"
                begin="0s"
                dur="5s"
                values="m42.952 59.564c-3.669-8.9724 20.497-12.707 24.548-12.838 29.633-0.82441 36.919-5.8261 35.09-7.7727-10.446-5.7224-30.778-0.13076-62.74-0.51977-30.193-0.36748-38.434-5.9758-36.663-12.133 1.6855-5.8595 11.874-12.216 42.616-15.025 24.259-2.2162 34.211-3.9293 36.108-6.2161 3.2503-3.9161-29.361-4.5865-29.361-3.5434 0-5.3176 95.538 2.9494 23.68 11.075-5.1047 1.3265-37.322 1.32-35.851 9.4705 3.7121 12.624 48.49 8.8454 66.543 10.251 5.3524 0.76659 30.295 4.8125 30.295 13.64-14.453 22.79-85.725-0.0905-85.725 14.345 0.47391 1.9286 2.4268 3.0814 4.1011 3.9065-3.6591-0.0724-7.3032-0.48797-12.641-4.6393z;
                    m43.912 53.971c-3.669-8.9724 22.497-10.708 26.548-10.838 29.633-0.82441 36.919-5.8261 35.09-7.7727-10.446-5.7224-30.778-0.13076-62.74-0.51977-30.193-0.36748-44.434-5.9758-42.663-12.133 1.6855-5.8595 17.874-12.216 48.616-15.025 24.259-2.2162 28.211 0.0707 30.108-2.2161 3.2503-3.9161-23.361-4.5865-23.361-3.5434 0-5.3176 115.73-1.7718 23.68 7.075-5.1047 1.3265-37.322 1.32-35.851 9.4705 3.7121 12.624 48.49 8.8454 66.543 10.251 5.3524 0.76659 30.295 4.8125 30.295 13.64-14.453 22.79-85.725-2.0905-85.725 12.345 0.47391 1.9286 2.4268 9.0814 4.1011 9.9065-3.6591-0.0724-9.3032-1.8005-14.641-10.639z;
                    m42.952 59.564c-3.669-8.9724 20.497-12.707 24.548-12.838 29.633-0.82441 36.919-5.8261 35.09-7.7727-10.446-5.7224-30.778-0.13076-62.74-0.51977-30.193-0.36748-38.434-5.9758-36.663-12.133 1.6855-5.8595 11.874-12.216 42.616-15.025 24.259-2.2162 34.211-3.9293 36.108-6.2161 3.2503-3.9161-29.361-4.5865-29.361-3.5434 0-5.3176 95.538 2.9494 23.68 11.075-5.1047 1.3265-37.322 1.32-35.851 9.4705 3.7121 12.624 48.49 8.8454 66.543 10.251 5.3524 0.76659 30.295 4.8125 30.295 13.64-14.453 22.79-85.725-0.0905-85.725 14.345 0.47391 1.9286 2.4268 3.0814 4.1011 3.9065-3.6591-0.0724-7.3032-0.48797-12.641-4.6393z;"
                repeatCount="indefinite"
            />
        </path>
    </symbol>
</svg>

