<svg xmlns="http://www.w3.org/2000/svg" fill="currentColor" viewbox="0 0 512 512">
<!--!Font Awesome Free v7.1.0 by @fontawesome - https://fontawesome.com License - https://fontawesome.com/license/free Copyright 2026 Fonticons, Inc.-->

<symbol id="css" fill="currentColor" viewbox="0 0 448 512"><!--!Font Awesome Free v7.1.0 by @fontawesome - https://fontawesome.com License - https://fontawesome.com/license/free Copyright 2026 Fonticons, Inc.--><path d="M376.3 32L0 32 0 408.3c0 19 7.6 37.2 21 50.7s31.7 21 50.7 21l304.6 0c19 0 37.2-7.6 50.7-21s21-31.7 21-50.7l0-304.6c0-19-7.6-37.2-21-50.7s-31.7-21-50.7-21zM332.4 431.4c-7.7-8.5-11.7-20.7-12-36.6l31.3 0c.2 14.1 5.1 21.1 14.8 21.1c4.9 0 8.4-1.6 10.5-4.7c2-3.1 3-8 3-14.8c0-5.4-1.3-9.9-4-13.4c-3.5-4.2-8.1-7.5-13.2-9.5L351.2 368c-10.3-4.9-17.8-10.8-22.5-17.6c-4.5-6.8-6.7-16.3-6.7-28.4c0-13.6 4-24.6 11.8-33.1c8.1-8.5 19.1-12.7 33.2-12.7c13.6 0 24.1 4.2 31.5 12.5c7.5 8.4 11.5 20.3 11.8 35.9l-30.1 0c.2-5.1-.9-10.2-3-14.8c-1.7-3.4-5-5.1-10-5.1c-8.8 0-13.2 5.2-13.2 15.7c0 5.3 1.1 9.4 3.2 12.6c3.1 3.5 7 6.2 11.4 7.8l11.1 4.9c11.5 5.3 19.7 11.7 24.8 19.4c5.1 7.7 7.6 18 7.6 31c0 15.5-4 27.4-12.3 35.7c-8.2 8.3-19.5 12.5-34.1 12.5s-25.6-4.2-33.4-12.7zm-101 0c-7.7-8.5-11.7-20.7-12-36.6l31.3 0c.2 14.1 5.1 21.1 14.8 21.1c4.9 0 8.4-1.6 10.4-4.7c2-3.1 3-8 3-14.8c0-5.4-1.3-9.9-3.9-13.4c-3.5-4.2-8.1-7.5-13.2-9.5L250.2 368c-10.3-4.9-17.8-10.8-22.5-17.6c-4.5-6.8-6.7-16.3-6.7-28.4c0-13.6 4-24.6 11.8-33.1c8.1-8.5 19.1-12.7 33.2-12.7c13.6 0 24.1 4.2 31.4 12.5c7.6 8.4 11.5 20.3 11.9 35.9l-30.1 0c.2-5.1-.9-10.2-3-14.8c-1.7-3.4-5-5.1-10-5.1c-8.8 0-13.2 5.2-13.2 15.7c0 5.3 1.1 9.4 3.2 12.6c3.1 3.5 7 6.2 11.4 7.8l11.1 4.9c11.5 5.3 19.7 11.7 24.8 19.4c5.1 7.7 7.6 18 7.6 31c0 15.5-4.1 27.4-12.3 35.7s-19.5 12.5-34.1 12.5s-25.6-4.2-33.4-12.7zm-105.6 1.1c-8.4-7.7-12.5-19.2-12.5-34.5l0-75.4c0-15.2 4.4-26.7 13.2-34.6c8.9-7.8 20.7-11.8 35.2-11.8c14.1 0 25.2 4 33.4 12c8.3 8 12.5 20 12.5 35.9l0 6-33.1 0 0-5.8c0-6.1-1.3-10.7-4-13.6c-1.1-1.5-2.6-2.7-4.3-3.5s-3.5-1.2-5.4-1.1c-5.4 0-9.2 1.8-11.4 5.6c-2.3 5.2-3.3 10.8-3 16.4l0 65.5c0 13.7 4.8 20.6 14.4 20.8c4.5 0 7.9-1.6 10.2-4.8c2.5-4.1 3.7-8.8 3.5-13.6l0-4.9 33.1 0 0 5.1c0 10.6-2.1 19.5-6.2 26.6c-4 6.9-9.9 12.5-17.1 16c-7.7 3.7-16.1 5.5-24.6 5.3c-14.2 0-25.5-3.9-33.8-11.6z"/></symbol>

<symbol id="javascript" fill="currentColor" viewbox="0 32 448 448"><!--!Font Awesome Free v7.1.0 by @fontawesome - https://fontawesome.com License - https://fontawesome.com/license/free Copyright 2026 Fonticons, Inc.--><path d="M448 96c0-35.3-28.7-64-64-64L64 32C28.7 32 0 60.7 0 96L0 416c0 35.3 28.7 64 64 64l320 0c35.3 0 64-28.7 64-64l0-320zM180.9 444.9c-33.7 0-53.2-17.4-63.2-38.5L152 385.7c6.6 11.7 12.6 21.6 27.1 21.6 13.8 0 22.6-5.4 22.6-26.5l0-143.1 42.1 0 0 143.7c0 43.6-25.6 63.5-62.9 63.5zm85.8-43L301 382.1c9 14.7 20.8 25.6 41.5 25.6 17.4 0 28.6-8.7 28.6-20.8 0-14.4-11.4-19.5-30.7-28l-10.5-4.5c-30.4-12.9-50.5-29.2-50.5-63.5 0-31.6 24.1-55.6 61.6-55.6 26.8 0 46 9.3 59.8 33.7L368 290c-7.2-12.9-15-18-27.1-18-12.3 0-20.1 7.8-20.1 18 0 12.6 7.8 17.7 25.9 25.6l10.5 4.5c35.8 15.3 55.9 31 55.9 66.2 0 37.8-29.8 58.6-69.7 58.6-39.1 0-64.4-18.6-76.7-43z"/></symbol>

<symbol id="html" fill="currentColor" viewbox="m 0 576 512"><!--!Font Awesome Free v7.1.0 by @fontawesome - https://fontawesome.com License - https://fontawesome.com/license/free Copyright 2026 Fonticons, Inc.--><path d="M360.8 1.2c-17-4.9-34.7 5-39.6 22l-128 448c-4.9 17 5 34.7 22 39.6s34.7-5 39.6-22l128-448c4.9-17-5-34.7-22-39.6zm64.6 136.1c-12.5 12.5-12.5 32.8 0 45.3l73.4 73.4-73.4 73.4c-12.5 12.5-12.5 32.8 0 45.3s32.8 12.5 45.3 0l96-96c12.5-12.5 12.5-32.8 0-45.3l-96-96c-12.5-12.5-32.8-12.5-45.3 0zm-274.7 0c-12.5-12.5-32.8-12.5-45.3 0l-96 96c-12.5 12.5-12.5 32.8 0 45.3l96 96c12.5 12.5 32.8 12.5 45.3 0s12.5-32.8 0-45.3L77.3 256 150.6 182.6c12.5-12.5 12.5-32.8 0-45.3z"/></symbol>


<symbol id="react" fill="currentColor" viewbox="0 0 512 512"><path d="M418.2 177.2c-5.4-1.8-10.8-3.5-16.2-5.1 .9-3.7 1.7-7.4 2.5-11.1 12.3-59.6 4.2-107.5-23.1-123.3-26.3-15.1-69.2 .6-112.6 38.4-4.3 3.7-8.5 7.6-12.5 11.5-2.7-2.6-5.5-5.2-8.3-7.7-45.5-40.4-91.1-57.4-118.4-41.5-26.2 15.2-34 60.3-23 116.7 1.1 5.6 2.3 11.1 3.7 16.7-6.4 1.8-12.7 3.8-18.6 5.9-53.4 18.5-91.7 47.7-91.7 77.9 0 31.2 40.8 62.5 96.3 81.5 4.5 1.5 9 3 13.6 4.3-1.5 6-2.8 11.9-4 18-10.5 55.5-2.3 99.5 23.9 114.6 27 15.6 72.4-.4 116.6-39.1 3.5-3.1 7-6.3 10.5-9.7 4.4 4.3 9 8.4 13.6 12.4 42.8 36.8 85.1 51.7 111.2 36.6 27-15.6 35.8-62.9 24.4-120.5-.9-4.4-1.9-8.9-3-13.5 3.2-.9 6.3-1.9 9.4-2.9 57.7-19.1 99.5-50 99.5-81.7 0-30.3-39.4-59.7-93.8-78.4zM282.9 92.3c37.2-32.4 71.9-45.1 87.7-36 16.9 9.7 23.4 48.9 12.8 100.4-.7 3.4-1.4 6.7-2.3 10-22.2-5-44.7-8.6-67.3-10.6-13-18.6-27.2-36.4-42.6-53.1 3.9-3.7 7.7-7.2 11.7-10.7zM167.2 307.5c5.1 8.7 10.3 17.4 15.8 25.9-15.6-1.7-31.1-4.2-46.4-7.5 4.4-14.4 9.9-29.3 16.3-44.5 4.6 8.8 9.3 17.5 14.3 26.1zM136.9 187.2c14.4-3.2 29.7-5.8 45.6-7.8-5.3 8.3-10.5 16.8-15.4 25.4-4.9 8.5-9.7 17.2-14.2 26-6.3-14.9-11.6-29.5-16-43.6zm27.4 68.9c6.6-13.8 13.8-27.3 21.4-40.6s15.8-26.2 24.4-38.9c15-1.1 30.3-1.7 45.9-1.7s31 .6 45.9 1.7c8.5 12.6 16.6 25.5 24.3 38.7s14.9 26.7 21.7 40.4c-6.7 13.8-13.9 27.4-21.6 40.8-7.6 13.3-15.7 26.2-24.2 39-14.9 1.1-30.4 1.6-46.1 1.6s-30.9-.5-45.6-1.4c-8.7-12.7-16.9-25.7-24.6-39s-14.8-26.8-21.5-40.6zm180.6 51.2c5.1-8.8 9.9-17.7 14.6-26.7 6.4 14.5 12 29.2 16.9 44.3-15.5 3.5-31.2 6.2-47 8 5.4-8.4 10.5-17 15.5-25.6zm14.4-76.5c-4.7-8.8-9.5-17.6-14.5-26.2-4.9-8.5-10-16.9-15.3-25.2 16.1 2 31.5 4.7 45.9 8-4.6 14.8-10 29.2-16.1 43.4zM256.2 118.3c10.5 11.4 20.4 23.4 29.6 35.8-19.8-.9-39.7-.9-59.5 0 9.8-12.9 19.9-24.9 29.9-35.8zM140.2 57c16.8-9.8 54.1 4.2 93.4 39 2.5 2.2 5 4.6 7.6 7-15.5 16.7-29.8 34.5-42.9 53.1-22.6 2-45 5.5-67.2 10.4-1.3-5.1-2.4-10.3-3.5-15.5-9.4-48.4-3.2-84.9 12.6-94zM115.7 320.6c-4.2-1.2-8.3-2.5-12.4-3.9-21.3-6.7-45.5-17.3-63-31.2-10.1-7-16.9-17.8-18.8-29.9 0-18.3 31.6-41.7 77.2-57.6 5.7-2 11.5-3.8 17.3-5.5 6.8 21.7 15 43 24.5 63.6-9.6 20.9-17.9 42.5-24.8 64.5zm116.6 98c-16.5 15.1-35.6 27.1-56.4 35.3-11.1 5.3-23.9 5.8-35.3 1.3-15.9-9.2-22.5-44.5-13.5-92 1.1-5.6 2.3-11.2 3.7-16.7 22.4 4.8 45 8.1 67.9 9.8 13.2 18.7 27.7 36.6 43.2 53.4-3.2 3.1-6.4 6.1-9.6 8.9zm24.5-24.3c-10.2-11-20.4-23.2-30.3-36.3 9.6 .4 19.5 .6 29.5 .6 10.3 0 20.4-.2 30.4-.7-9.2 12.7-19.1 24.8-29.6 36.4zm130.7 30c-.9 12.2-6.9 23.6-16.5 31.315.9 9.2-49.8-2.8-86.4-34.2-4.2-3.6-8.4-7.5-12.7-11.5 15.3-16.9 29.4-34.8 42.2-53.6 22.9-1.9 45.7-5.4 68.2-10.5 1 4.1 1.9 8.2 2.7 12.2 4.9 21.6 5.7 44.1 2.5 66.3zm18.2-107.5c-2.8 .9-5.6 1.8-8.5 2.6-7-21.8-15.6-43.1-25.5-63.8 9.6-20.4 17.7-41.4 24.5-62.9 5.2 1.5 10.2 3.1 15 4.7 46.6 16 79.3 39.8 79.3 58 0 19.6-34.9 44.9-84.8 61.4zM256 301.8a45.8 45.8 0 1 0 0-91.6 45.8 45.8 0 1 0 0 91.6z"/></symbol>

<symbol id="mysql" fill="currentColor" viewbox="0 0 512 512"><path d="M480-120q-151 0-255.5-46.5T120-280v-400q0-66 105.5-113T480-840q149 0 254.5 47T840-680v400q0 67-104.5 113.5T480-120Zm0-479q89 0 179-25.5T760-679q-11-29-100.5-55T480-760q-91 0-178.5 25.5T200-679q14 30 101.5 55T480-599Zm0 199q42 0 81-4t74.5-11.5q35.5-7.5 67-18.5t57.5-25v-120q-26 14-57.5 25t-67 18.5Q600-528 561-524t-81 4q-42 0-82-4t-75.5-11.5Q287-543 256-554t-56-25v120q25 14 56 25t66.5 18.5Q358-408 398-404t82 4Zm0 200q46 0 93.5-7t87.5-18.5q40-11.5 67-26t32-29.5v-98q-26 14-57.5 25t-67 18.5Q600-328 561-324t-81 4q-42 0-82-4t-75.5-11.5Q287-343 256-354t-56-25v99q5 15 31.5 29t66.5 25.5q40 11.5 88 18.5t94 7Z"/></symbol>

<symbol id="git" fill="currentColor" viewbox="0 0 512 512"><path d="M216.3 158.4l-79.3 0c-40-10.5-130.5-7.8-130.5 74.8 0 30.1 15 51.2 35 61-25.1 23-37 33.8-37 49.2 0 11 4.5 21.1 17.9 26.8-14.3 13.4-22.4 23.1-22.4 41.4 0 32.1 28 50.8 101.6 50.8 70.8 0 111.8-26.4 111.8-73.2 0-58.7-45.2-56.5-151.6-63l13.4-21.6c27.3 7.6 118.7 10 118.7-67.9 0-18.7-7.7-31.7-15-41.1l37.4-2.8 0-34.5zM152.9 400.3c0 32.1-104.9 32.1-104.9 2.4 0-8.1 5.3-15 10.6-21.5 77.7 5.3 94.3 3.4 94.3 19.1zM102.1 265.7c-52.8 0-50.5-71.2 1.2-71.2 49.5 0 50.8 71.2-1.2 71.2zM235.4 366.2l0-32.1c26.7-3.7 27.2-2 27.2-11l0-119.5c0-8.5-2.1-7.4-27.2-16.3l4.5-32.9 84.2 0 0 168.7c0 6.5 .4 7.3 6.5 8.1l20.7 2.8 0 32.1-115.9 0zm52.5-244.3c-23.2 0-36.6-13.4-36.6-36.6s13.4-35.8 36.6-35.8c23.6 0 37 12.6 37 35.8s-13.4 36.6-37 36.6zM512 350.5c-17.5 8.5-43.1 16.3-66.3 16.3-48.4 0-66.7-19.5-66.7-65.5l0-106.5c0-5.4 1-4.1-31.7-4.1l0-36.2c35.8-4.1 50-22 54.5-66.3l38.6 0c0 65.8-1.3 61.8 3.3 61.8l57.3 0 0 40.6-60.6 0 0 97.1c0 6.9-4.9 51.4 60.6 26.8l11 35.8z"/></symbol>

<symbol id="node" fill="currentColor" viewbox="0 0 512 512"><path d="M224.5 508c-6.7 0-13.5-1.8-19.4-5.2l-61.7-36.5c-9.2-5.2-4.7-7-1.7-8 12.3-4.3 14.8-5.2 27.9-12.7 1.4-.8 3.2-.5 4.6 .4l47.4 28.1c1.7 1 4.1 1 5.7 0L412 367.5c1.7-1 2.8-3 2.8-5l0-213.2c0-2.1-1.1-4-2.9-5.1L227.3 37.7c-1.7-1-4-1-5.7 0L37.1 144.3c-1.8 1-2.9 3-2.9 5.1l0 213.1c0 2 1.1 4 2.9 4.9l50.6 29.2c27.5 13.7 44.3-2.4 44.3-18.7l0-210.4c0-3 2.4-5.3 5.4-5.3l23.4 0c2.9 0 5.4 2.3 5.4 5.3l0 210.5c0 36.6-20 57.6-54.7 57.6-10.7 0-19.1 0-42.5-11.6L20.6 396.1c-12-6.9-19.4-19.8-19.4-33.7l0-213.1c0-13.8 7.4-26.8 19.4-33.7L205.1 9c11.7-6.6 27.2-6.6 38.8 0L428.6 115.7c12 6.9 19.4 19.8 19.4 33.7l0 213.1c0 13.8-7.4 26.7-19.4 33.7L243.9 502.8c-5.9 3.4-12.6 5.2-19.4 5.2zM373.6 297.9c0-39.9-27-50.5-83.7-58-57.4-7.6-63.2-11.5-63.2-24.9 0-11.1 4.9-25.9 47.4-25.9 37.9 0 51.9 8.2 57.7 33.8 .5 2.4 2.7 4.2 5.2 4.2l24 0c1.5 0 2.9-.6 3.9-1.7s1.5-2.6 1.4-4.1c-3.7-44.1-33-64.6-92.2-64.6-52.7 0-84.1 22.2-84.1 59.5 0 40.4 31.3 51.6 81.8 56.6 60.5 5.9 65.2 14.8 65.2 26.7 0 20.6-16.6 29.4-55.5 29.4-48.9 0-59.6-12.3-63.2-36.6-.4-2.6-2.6-4.5-5.3-4.5l-23.9 0c-3 0-5.3 2.4-5.3 5.3 0 31.1 16.9 68.2 97.8 68.2 58.4-.1 92-23.2 92-63.4z"/></symbol>

<symbol id="python" fill="currentColor" viewbox="0 0 512 512"><path d="M439.8 200.5c-7.7-30.9-22.3-54.2-53.4-54.2l-40.1 0 0 47.4c0 36.8-31.2 67.8-66.8 67.8l-106.8 0c-29.2 0-53.4 25-53.4 54.3l0 101.8c0 29 25.2 46 53.4 54.3 33.8 9.9 66.3 11.7 106.8 0 26.9-7.8 53.4-23.5 53.4-54.3l0-40.7-106.7 0 0-13.6 160.2 0c31.1 0 42.6-21.7 53.4-54.2 11.2-33.5 10.7-65.7 0-108.6zM286.2 444.7a20.4 20.4 0 1 1 0-40.7 20.4 20.4 0 1 1 0 40.7zM167.8 248.1l106.8 0c29.7 0 53.4-24.5 53.4-54.3l0-101.9c0-29-24.4-50.7-53.4-55.6-35.8-5.9-74.7-5.6-106.8 .1-45.2 8-53.4 24.7-53.4 55.6l0 40.7 106.9 0 0 13.6-147 0c-31.1 0-58.3 18.7-66.8 54.2-9.8 40.7-10.2 66.1 0 108.6 7.6 31.6 25.7 54.2 56.8 54.2l36.7 0 0-48.8c0-35.3 30.5-66.4 66.8-66.4zM161.2 64.7a20.4 20.4 0 1 1 0 40.8 20.4 20.4 0 1 1 0-40.8z"/></symbol>

<symbol id="typescript" fill="currentColor" version="1.1" viewbox="0 0 512 512" xmlns="http://www.w3.org/2000/svg">
 <path d="m316.94 407.42v50.061c8.138 4.172 17.763 7.3 28.875 9.386s22.823 3.129 35.135 3.129c11.999 0 23.397-1.147 34.196-3.442 10.799-2.294 20.268-6.075 28.406-11.342 8.138-5.266 14.581-12.15 19.328-20.65s7.121-19.007 7.121-31.522c0-9.074-1.356-17.026-4.069-23.857s-6.625-12.906-11.738-18.225c-5.112-5.319-11.242-10.091-18.389-14.315s-15.207-8.213-24.18-11.967c-6.573-2.712-12.468-5.345-17.685-7.9-5.217-2.556-9.651-5.163-13.303-7.822-3.652-2.66-6.469-5.476-8.451-8.448-1.982-2.973-2.974-6.336-2.974-10.091 0-3.441 0.887-6.544 2.661-9.308s4.278-5.136 7.512-7.118c3.235-1.981 7.199-3.52 11.894-4.615 4.696-1.095 9.912-1.642 15.651-1.642 4.173 0 8.581 0.313 13.224 0.938 4.643 0.626 9.312 1.591 14.008 2.894 4.695 1.304 9.259 2.947 13.694 4.928 4.434 1.982 8.529 4.276 12.285 6.884v-46.776c-7.616-2.92-15.937-5.084-24.962-6.492s-19.381-2.112-31.066-2.112c-11.895 0-23.163 1.278-33.805 3.833s-20.006 6.544-28.093 11.967c-8.086 5.424-14.476 12.333-19.171 20.729-4.695 8.395-7.043 18.433-7.043 30.114 0 14.914 4.304 27.638 12.912 38.172 8.607 10.533 21.675 19.45 39.204 26.751 6.886 2.816 13.303 5.579 19.25 8.291s11.086 5.528 15.415 8.448c4.33 2.92 7.747 6.101 10.252 9.543 2.504 3.441 3.756 7.352 3.756 11.733 0 3.233-0.783 6.231-2.348 8.995s-3.939 5.162-7.121 7.196-7.147 3.624-11.894 4.771c-4.748 1.148-10.303 1.721-16.668 1.721-10.851 0-21.597-1.903-32.24-5.71-10.642-3.806-20.502-9.516-29.579-17.13zm-84.159-123.34h64.22v-41.082h-179v41.082h63.906v182.92h50.874zm-182.78-284.08h412c27.7 0 50 22.3 50 50v412c0 27.7-22.3 50-50 50h-412c-27.7 0-50-22.3-50-50v-412c0-27.7 22.3-50 50-50z"/>
</symbol>

<symbol id="c++" fill="currentColor" viewbox="0 0 50 50"><path d="M 43.910156 12.003906 L 27.070313 2.539063 C 25.792969 1.824219 24.207031 1.824219 22.929688 2.539063 L 6.089844 12.003906 C 4.800781 12.726563 4 14.082031 4 15.535156 L 4 34.464844 C 4 35.917969 4.800781 37.273438 6.089844 37.996094 L 22.929688 47.460938 C 23.570313 47.820313 24.285156 48 25 48 C 25.714844 48 26.429688 47.820313 27.070313 47.460938 L 43.910156 37.996094 C 45.199219 37.273438 46 35.917969 46 34.464844 L 46 15.535156 C 46 14.082031 45.199219 12.726563 43.910156 12.003906 Z M 25 37 C 18.382813 37 13 31.617188 13 25 C 13 18.382813 18.382813 13 25 13 C 28.78125 13 32.273438 14.753906 34.542969 17.742188 L 30.160156 20.277344 C 28.84375 18.835938 26.972656 18 25 18 C 21.140625 18 18 21.140625 18 25 C 18 28.859375 21.140625 32 25 32 C 26.972656 32 28.84375 31.164063 30.160156 29.722656 L 34.542969 32.257813 C 32.273438 35.246094 28.78125 37 25 37 Z M 37 26 L 35 26 L 35 28 L 33 28 L 33 26 L 31 26 L 31 24 L 33 24 L 33 22 L 35 22 L 35 24 L 37 24 Z M 44 26 L 42 26 L 42 28 L 40 28 L 40 26 L 38 26 L 38 24 L 40 24 L 40 22 L 42 22 L 42 24 L 44 24 Z"/></symbol>

<symbol id="c" fill="currentColor" viewbox="0 0 130 130"><path d="M117.5 33.5l.3-.2c-.6-1.1-1.5-2.1-2.4-2.6l-48.3-27.8c-.8-.5-1.9-.7-3.1-.7-1.2 0-2.3.3-3.1.7l-48 27.9c-1.7 1-2.9 3.5-2.9 5.4v55.7c0 1.1.2 2.3.9 3.4l-.2.1c.5.8 1.2 1.5 1.9 1.9l48.2 27.9c.8.5 1.9.7 3.1.7 1.2 0 2.3-.3 3.1-.7l48-27.9c1.7-1 2.9-3.5 2.9-5.4v-55.8c.1-.8 0-1.7-.4-2.6zm-53.5 55c9.1 0 17.1-5 21.3-12.4l12.9 7.6c-6.8 11.8-19.6 19.8-34.2 19.8-21.8 0-39.5-17.7-39.5-39.5s17.7-39.5 39.5-39.5c14.7 0 27.5 8.1 34.3 20l-13 7.5c-4.2-7.5-12.2-12.5-21.3-12.5-13.5 0-24.5 11-24.5 24.5s11 24.5 24.5 24.5z"/></symbol>

</svg>